<?xml version="1.0" encoding="UTF-8"?>
<svg id="Capa_1" data-name="Capa 1" xmlns="http://www.w3.org/2000/svg" viewBox="0 0 1784.01 518.74">
  <defs>
    <style>
      .cls-1 {
        fill: #e71a78;
      }

      .cls-2 {
        fill: #222a54;
      }

      .cls-3 {
        fill: #fab712;
      }

      .cls-4 {
        fill: #15b09d;
      }
    </style>
  </defs>
  <g>
    <path class="cls-4" d="M1782.07,111c-21.55,4.92-82.41,21.79-139.53,65.14-87.26,66.22-128.01,162.08-121.42,285.22,38.98-73.08,88.13-142.11,148.64-197.06,11.63-10.33,23.81-19.97,36.35-29.01-45.71,41.14-81.47,92.13-110.88,145.74-16.64,30.44-31.29,61.88-44.18,94.02,28.66-9.02,70.31-25.94,110.24-56.1,91.79-69.34,132.39-172.9,120.77-307.94Z"/>
    <path class="cls-3" d="M1466.65,87.9c-8.08,9.49-29.92,37.65-41.13,76.51-17.13,59.38-3.23,116.47,41.28,169.93-7.02-46.2-8.07-93.99.77-139.25,1.78-8.59,4.03-17.06,6.66-25.38-6.8,34.02-5.78,69.14-1,103.3,2.74,19.38,6.72,38.54,11.73,57.42,9.92-13.74,23.05-35.44,30.93-62.55,18.13-62.31,1.57-122.84-49.23-179.99Z"/>
    <path class="cls-1" d="M1630.53,0c-8.44,4.33-31.96,17.78-51.12,41.85-29.27,36.77-36.07,80.94-20.29,131.44,8.47-34.51,21.6-68.41,40.94-97.67,3.74-5.53,7.79-10.83,12.04-15.91-14.65,21.94-24.12,46.93-30.68,72.33-3.7,14.42-6.46,29.04-8.42,43.76,10.96-6.78,26.49-18.23,39.89-34.99,30.82-38.55,36.74-85.9,17.62-140.81Z"/>
  </g>
  <g>
    <path class="cls-2" d="M1050.72,434.01c0,12.34.53,24.4,2.14,31.64h-36.73l-2.41-13.13h-.81c-8.58,10.45-21.99,16.08-37.54,16.08-26.54,0-42.36-19.3-42.36-40.21,0-34.05,30.57-50.14,76.95-50.14v-1.61c0-7.24-3.75-17.16-23.86-17.16-13.41,0-27.62,4.56-36.2,9.92l-7.51-26.27c9.12-5.1,27.08-11.8,50.94-11.8,43.7,0,57.38,25.74,57.38,56.84v45.85ZM1011.3,403.72c-21.45,0-38.07,5.1-38.07,20.64,0,10.46,6.97,15.55,16.09,15.55,9.92,0,18.5-6.7,21.18-15.01.54-2.15.8-4.56.8-6.98v-14.21Z"/>
    <path class="cls-2" d="M1069.75,275.29h40.75v74.81h.54c7.78-11.26,21.45-18.5,39.68-18.5,31.37,0,54.16,26,53.89,66.22,0,47.18-29.76,70.78-59.79,70.78-15.28,0-30.3-5.63-39.41-21.18h-.54l-1.61,18.23h-34.59c.54-8.58,1.08-24.4,1.08-39.14v-151.22ZM1110.5,409.88c0,2.68.27,5.09.81,7.24,2.68,10.73,12.06,19.3,23.86,19.3,17.43,0,28.15-13.41,28.15-37,0-20.38-9.11-36.46-28.15-36.46-10.99,0-21.18,8.31-23.86,20.11-.54,2.41-.81,4.83-.81,7.51v19.31Z"/>
    <rect class="cls-2" x="1216.67" y="275.29" width="40.75" height="190.36"/>
    <path class="cls-2" d="M1308.37,412.98c1.07,16.89,17.96,24.93,37,24.93,13.94,0,25.2-1.88,36.2-5.63l5.36,27.62c-13.4,5.63-29.76,8.31-47.45,8.31-44.51,0-69.98-25.74-69.98-66.76,0-33.24,20.64-69.98,66.22-69.98,42.36,0,58.45,32.98,58.45,65.42,0,6.98-.81,13.14-1.34,16.09h-84.45ZM1356.36,385.1c0-9.92-4.29-26.54-23.06-26.54-17.16,0-24.13,15.82-25.2,26.54h48.26Z"/>
    <path class="cls-2" d="M0,287.36c13.14-2.15,32.45-3.76,54.43-3.76,26.81,0,45.58,4.02,58.45,14.21,10.99,8.58,16.89,21.45,16.89,38.07,0,22.79-16.35,38.61-31.9,44.24v.8c12.6,5.09,19.58,16.89,24.13,33.52,5.63,20.64,10.99,44.24,14.48,51.21h-41.83c-2.68-5.36-7.24-19.84-12.33-42.09-5.1-22.79-12.87-28.69-29.76-28.96h-12.06v71.05H0v-178.29ZM40.49,365.11h16.09c20.38,0,32.44-10.19,32.44-26.01s-11.26-24.93-30.03-24.93c-9.92,0-15.55.53-18.5,1.34v49.6Z"/>
    <path class="cls-2" d="M175.61,413.1c1.07,16.89,17.97,24.93,37,24.93,13.94,0,25.2-1.88,36.2-5.63l5.36,27.62c-13.4,5.63-29.76,8.31-47.45,8.31-44.51,0-69.98-25.74-69.98-66.76,0-33.24,20.64-69.98,66.22-69.98,42.36,0,58.45,32.98,58.45,65.42,0,6.98-.8,13.14-1.34,16.09h-84.45ZM223.6,385.22c0-9.92-4.29-26.54-23.05-26.54-17.16,0-24.13,15.82-25.2,26.54h48.26Z"/>
    <path class="cls-2" d="M272.13,430.26c7.51,4.56,23.06,9.65,35.12,9.65s17.43-4.01,17.43-10.72-4.02-10.19-19.04-15.28c-27.34-9.12-37.8-23.86-37.53-39.42,0-24.67,20.92-43.16,53.36-43.16,15.28,0,28.69,3.75,36.73,7.77l-6.97,28.15c-5.9-3.22-17.43-7.51-28.42-7.51-9.92,0-15.55,4.02-15.55,10.45s5.1,9.65,21.18,15.28c24.93,8.58,35.12,21.45,35.39,40.49,0,24.66-19.03,42.63-56.57,42.63-17.16,0-32.44-4.02-42.36-9.38l7.24-28.95Z"/>
    <path class="cls-2" d="M652.58,398.62c0,47.99-34.05,69.97-69.17,69.97-38.35,0-67.84-25.2-67.84-67.56s27.89-69.71,70.25-69.71c39.95,0,66.76,27.61,66.76,67.3M557.66,399.97c0,22.52,9.38,39.41,26.81,39.41,16.09,0,26-15.82,26-39.68,0-19.3-7.51-39.14-26-39.14s-26.81,20.11-26.81,39.42"/>
    <path class="cls-2" d="M664.37,376.37c0-16.35-.54-30.03-1.08-41.83h35.39l1.88,18.24h.81c5.36-8.58,18.5-21.18,40.49-21.18,26.81,0,46.92,17.96,46.92,56.57v77.48h-40.75v-72.65c0-16.89-5.9-28.42-20.65-28.42-11.27,0-17.96,7.77-20.91,15.28-1.07,2.69-1.34,6.44-1.34,10.19v75.61h-40.76v-89.28Z"/>
    <path class="cls-2" d="M810.76,423.56c10.72,5.63,27.88,11.26,45.31,11.26,18.77,0,28.69-7.78,28.69-19.57s-8.58-17.7-30.3-25.2c-30.03-10.72-49.87-27.35-49.87-53.62,0-30.83,26.01-54.16,68.37-54.16,20.65,0,35.39,4.02,46.12,9.11l-9.12,32.71c-6.97-3.48-20.11-8.58-37.54-8.58s-26.28,8.31-26.28,17.43c0,11.53,9.92,16.62,33.52,25.47,31.91,11.8,46.65,28.42,46.65,53.89,0,30.3-23.06,56.03-72.66,56.03-20.64,0-41.02-5.63-51.21-11.26l8.31-33.52Z"/>
    <path class="cls-2" d="M375.35,378.51c0-17.16-.53-31.64-1.07-43.97h35.39l1.88,18.23h.54c9.65-13.68,24.67-21.18,43.7-21.18,28.69,0,54.43,24.93,54.43,66.76,0,47.72-30.3,70.24-59.53,70.24-15.82,0-28.15-6.43-34.05-15.02h-.54v65.16h-40.76v-140.23ZM416.11,409.34c0,3.22.27,5.9.81,8.58,2.68,10.99,12.06,19.31,23.86,19.31,17.69,0,28.15-14.75,28.15-37,0-20.91-9.39-36.74-27.62-36.74-11.53,0-21.71,8.58-24.4,20.65-.54,2.15-.81,4.83-.81,7.24v17.96Z"/>
  </g>
</svg>