<?xml version="1.0" encoding="UTF-8"?>
<svg id="Capa_1" data-name="Capa 1" xmlns="http://www.w3.org/2000/svg" viewBox="0 0 771.07 752.06">
  <path id="flecha-abajo-izquierda" d="M310.92,659.12c-3.98-3.46-6.25-8.47-6.25-13.74s2.28-10.28,6.25-13.74l44.7-38.94c-83.73-8.24-153.53-63.92-182.17-139.8-1.24-3.29-2.4-6.61-3.48-9.97h35.12c7.08,0,10.88-8.34,6.22-13.68l-51.73-59.38-46.68-53.59c-3.29-3.78-9.16-3.78-12.45,0l-68.81,79h0s-29.6,33.98-29.6,33.98c-4.65,5.34-.86,13.68,6.22,13.68h29.3c.65,3.34,1.35,6.67,2.11,9.97,34.96,154.16,172.81,269.24,337.54,269.24,2,0,3.99-.02,5.98-.05l-72.28-62.97Z"/>
  <path id="flecha-arriba-derecha" d="M762.8,309.13h-45.93c-.65-3.34-1.35-6.67-2.11-9.97C679.81,145.01,541.96,29.92,377.22,29.92c-2,0-3.99.02-5.98.05l72.28,62.97c3.98,3.46,6.25,8.47,6.25,13.74s-2.28,10.28-6.25,13.74l-44.7,38.94c83.73,8.24,153.53,63.92,182.17,139.8,1.24,3.29,2.4,6.61,3.48,9.97h-18.5c-7.08,0-10.88,8.34-6.22,13.68l34.79,39.94,63.62,73.03c3.29,3.78,9.16,3.78,12.45,0l52.72-60.52,45.69-52.45c4.65-5.34.86-13.68-6.22-13.68Z"/>
  <path id="flecha-arriba-izquierda" d="M436.97,100.46l-80.28-69.94-32.69-28.47c-5.34-4.65-13.68-.86-13.68,6.22v28.11c-3.34.65-6.67,1.35-9.97,2.11C146.2,73.45,31.12,211.3,31.12,376.03c0,1.55,0,3.09.03,4.64l61.8-70.94c3.46-3.98,8.47-6.25,13.74-6.25s10.28,2.28,13.75,6.25l40.02,45.93c7.81-84.28,63.66-154.62,139.91-183.4,3.29-1.24,6.61-2.4,9.97-3.48v36.31c0,7.08,8.34,10.88,13.68,6.22l60.71-52.88h0l52.26-45.53c3.78-3.29,3.78-9.16,0-12.45Z"/>
  <path id="flecha-abajo-derecha" d="M678.13,442.33c-3.46,3.98-8.47,6.25-13.74,6.25s-10.28-2.28-13.74-6.25l-55.71-63.95c-.97,92.17-59.22,170.61-140.84,201.42-3.29,1.24-6.61,2.4-9.97,3.48v-36.31c0-7.08-8.34-10.88-13.68-6.22l-60.71,52.88-52.27,45.53c-3.78,3.29-3.78,9.16,0,12.45l80.28,69.94,32.69,28.47c5.34,4.65,13.68.86,13.68-6.22v-28.11c3.34-.65,6.67-1.35,9.97-2.11,149.53-33.91,262.29-164.62,268.93-322.77l-44.89,51.53Z"/>
</svg>
